<svg width="29" height="29" viewBox="0 0 29 29" fill="none" xmlns="http://www.w3.org/2000/svg">
<path d="M26.2303 25.6933C26.0607 24.8454 25.0149 23.2342 23.0929 20.86C21.1708 18.4857 18.7919 15.8806 15.9559 13.0447C13.12 10.2087 10.5149 7.82976 8.14062 5.90773C5.76635 3.98571 4.15524 2.9399 3.30728 2.77031C4.89013 1.30052 6.86398 0.414882 9.22882 0.113388C11.5937 -0.188107 14.048 0.136942 16.5919 1.08853C19.1357 2.04013 21.4205 3.52875 23.4462 5.55442C25.4718 7.58009 26.9605 9.86485 27.9121 12.4087C28.8636 14.9526 29.1887 17.4069 28.8872 19.7718C28.5857 22.1366 27.7001 24.1105 26.2303 25.6933ZM13.0446 15.956C15.8805 18.7919 18.4856 21.1709 20.8599 23.0929C23.2342 25.0149 24.8453 26.0608 25.6932 26.2303C24.1104 27.7001 22.1366 28.5858 19.7717 28.8873C17.4069 29.1888 14.9525 28.8637 12.4086 27.9121C9.86479 26.9605 7.58003 25.4719 5.55436 23.4462C3.52869 21.4206 2.04006 19.1358 1.08847 16.5919C0.136881 14.0481 -0.188168 11.5937 0.113327 9.22888C0.414821 6.86404 1.30046 4.89019 2.77025 3.30734C2.93984 4.1553 3.98565 5.76641 5.90767 8.14068C7.8297 10.5149 10.2087 13.12 13.0446 15.956Z" fill="white"/>
</svg>
